<svg width="720" height="701" viewBox="0 0 720 701" fill="none" xmlns="http://www.w3.org/2000/svg">
<path d="M200.279 393.882C201.467 400.331 201.976 407.289 202.486 414.077C202.995 422.222 203.673 430.538 205.54 438.175C208.086 448.527 218.438 455.993 227.602 462.612C229.299 463.8 230.826 464.988 232.353 466.176C238.123 470.588 243.893 475.34 250.003 480.261C266.803 494.177 284.283 508.432 302.78 515.899C313.641 520.311 325.181 522.517 337.23 522.517C357.085 522.517 377.11 516.238 393.232 504.698C401.717 498.589 410.372 495.704 418.688 492.819C429.379 489.086 439.561 485.522 449.234 476.018C461.793 463.46 470.108 446.32 478.084 429.689C482.157 421.204 486.06 413.058 490.472 405.591C494.036 399.652 497.6 394.052 501.164 388.451C512.025 371.821 522.207 356.038 527.638 335.334C533.068 314.8 520.001 294.945 508.461 277.465C504.728 271.865 501.333 266.604 498.449 261.343C482.327 231.985 458.568 212.978 435.149 210.602C421.912 209.245 407.997 208.226 391.026 207.717C378.298 207.208 370.662 203.814 361.158 199.402C358.782 198.383 356.237 197.196 353.522 196.008C348.6 193.971 343.339 192.953 337.23 192.953C330.442 192.953 323.654 194.141 317.035 195.329C315.338 195.668 313.472 196.008 311.775 196.177C307.193 196.856 302.611 197.535 298.029 198.044C288.016 199.232 277.664 200.42 267.652 203.984C236.087 215.184 213.177 248.276 206.728 258.119L206.049 259.307C191.624 282.047 179.066 301.563 179.066 329.055C179.066 345.856 184.327 355.868 189.758 366.39C193.831 374.027 198.073 382.172 200.279 393.882ZM207.407 259.986L208.086 258.798C214.365 249.125 237.105 216.372 267.991 205.341C277.834 201.778 288.186 200.59 298.029 199.571C302.611 199.062 307.193 198.553 311.775 197.705C313.472 197.365 315.338 197.196 317.035 196.856C323.654 195.668 330.442 194.48 336.891 194.48C342.83 194.48 347.921 195.499 352.673 197.365C355.388 198.553 357.934 199.741 360.14 200.759C369.813 205.172 377.45 208.735 390.517 209.244C407.318 209.923 421.233 210.772 434.47 212.129C457.38 214.505 480.63 233.173 496.412 262.022C499.297 267.283 502.861 272.714 506.594 278.314C518.474 296.302 530.692 314.97 525.601 334.825C520.171 355.19 510.158 370.972 499.467 387.433C495.903 393.033 492.17 398.634 488.606 404.573C484.193 412.04 480.29 420.186 476.217 428.841C468.241 445.302 460.096 462.442 447.707 474.831C438.373 483.995 428.361 487.558 417.839 491.122C409.354 494.007 400.699 497.062 391.875 503.171C375.923 514.371 356.407 520.651 336.721 520.651C325.011 520.651 313.641 518.444 302.95 514.202C284.622 506.905 267.312 492.649 250.681 478.903C244.572 473.812 238.632 469.061 233.032 464.648C231.505 463.46 229.808 462.272 228.111 461.085C219.286 454.636 209.274 447.508 206.728 437.665C204.861 430.198 204.352 421.883 203.673 413.907C203.164 407.119 202.655 399.991 201.467 393.543C199.091 381.663 194.849 373.348 190.606 365.372C185.176 355.02 180.085 345.177 180.085 328.885C180.763 301.733 193.152 282.387 207.407 259.986Z" fill="#F6F7F7"/>
<path d="M181.272 398.293C182.63 405.591 183.139 413.397 183.818 421.034C184.497 430.198 185.176 439.531 187.212 448.017C190.097 459.726 201.637 468.042 211.819 475.339C213.686 476.697 215.553 478.054 217.25 479.242C223.698 484.163 230.147 489.424 237.105 495.194C256.112 510.807 275.628 526.759 296.332 535.244C308.55 540.166 321.617 542.711 335.024 542.711C357.425 542.711 379.826 535.584 397.984 522.856C407.657 516.068 417.33 512.674 426.664 509.449C438.713 505.207 450.253 501.304 460.944 490.612C475.199 476.527 484.363 457.181 493.357 438.513C497.939 428.84 502.352 419.846 507.273 411.361C511.176 404.742 515.419 398.293 519.322 392.184C531.371 373.347 542.911 355.698 549.02 332.448C555.129 309.369 540.365 286.968 527.468 267.282C523.225 261.003 519.322 255.064 516.098 249.124C497.939 216.202 471.296 194.819 444.992 192.104C430.058 190.576 414.445 189.558 395.438 188.879C381.014 188.37 372.528 184.467 361.837 179.546C359.122 178.358 356.407 177 353.352 175.812C347.921 173.436 341.812 172.418 335.024 172.418C327.557 172.418 319.751 173.776 312.284 175.133C310.247 175.473 308.38 175.812 306.344 176.152C301.253 177 295.992 177.509 290.901 178.188C279.701 179.546 267.991 180.734 256.621 184.806C221.323 197.364 195.358 234.53 188.23 245.56L187.382 246.918C171.09 272.373 157.005 294.435 157.005 325.321C157.005 344.158 162.775 355.358 169.054 367.238C173.975 376.062 178.727 385.226 181.272 398.293ZM189.079 247.766L189.927 246.409C196.885 235.378 222.51 198.722 257.469 186.334C268.67 182.431 280.21 181.073 291.41 179.715C296.501 179.206 301.762 178.527 306.853 177.679C308.89 177.339 310.756 177 312.793 176.661C320.26 175.303 327.896 173.945 335.194 173.945C341.812 173.945 347.582 174.964 352.843 177.339C355.897 178.697 358.613 179.885 361.328 181.073C372.189 185.994 380.844 190.067 395.608 190.576C414.445 191.255 430.228 192.273 444.992 193.801C470.787 196.516 496.921 217.559 514.74 249.973C517.964 255.912 522.037 261.852 526.11 268.301C539.517 288.665 553.263 309.708 547.493 331.939C541.383 355.019 530.013 372.499 517.964 391.166C513.891 397.445 509.819 403.724 505.915 410.512C500.994 418.997 496.582 427.992 491.83 437.665C483.005 456.332 473.672 475.509 459.756 489.424C449.234 499.776 438.034 503.679 426.155 507.752C416.651 510.977 406.809 514.371 396.966 521.329C378.977 534.056 356.916 541.014 335.024 541.014C321.787 541.014 308.89 538.638 297.01 533.717C276.476 525.401 256.96 509.449 238.123 494.006C231.165 488.236 224.717 482.976 218.268 478.054C216.571 476.697 214.704 475.339 212.837 473.981C202.825 466.854 191.624 458.708 188.739 447.677C186.703 439.362 186.024 430.028 185.345 420.864C184.836 413.227 184.327 405.251 182.8 397.954C180.254 384.717 175.333 375.383 170.751 366.219C164.642 354.51 158.872 343.479 158.872 324.982C159.041 294.774 172.957 272.883 189.079 247.766Z" fill="#F6F7F7"/>
<path d="M246.948 339.576C246.948 349.419 248.815 356.716 251.87 366.559L252.888 369.784C255.094 376.911 256.961 383.699 260.185 390.657C261.712 393.881 262.561 397.275 263.409 400.67C264.597 405.591 265.955 410.852 269.519 415.434C283.944 434.95 299.726 446.32 319.412 451.411C325.691 452.938 332.479 453.787 339.776 453.787C349.958 453.787 361.159 452.259 374.396 449.035C375.753 448.696 377.111 448.356 378.468 448.017C389.839 445.302 401.718 442.586 410.712 433.931C413.936 430.877 415.803 427.313 417.84 423.58C418.688 421.883 419.706 420.185 420.725 418.488C422.422 415.943 424.288 413.397 426.155 411.191C428.022 408.815 430.058 406.27 431.755 403.724C433.113 401.688 433.961 399.312 434.81 397.106C435.658 395.069 436.337 393.033 437.525 391.166C438.883 388.79 441.259 386.754 443.465 384.717C444.822 383.53 446.18 382.172 447.368 380.984C452.12 375.553 454.835 369.105 457.55 362.826C458.399 360.62 459.417 358.413 460.435 356.207C469.26 337.2 468.242 319.042 457.72 303.769C455.683 300.884 452.968 297.999 450.592 295.453C447.877 292.568 445.162 289.853 443.465 286.968C442.447 285.441 441.598 283.914 440.919 282.386C437.865 276.956 435.319 272.374 427.852 268.98C420.046 265.416 412.409 263.549 402.397 263.04C392.045 262.531 386.784 261.173 378.129 257.1C369.983 253.197 361.837 251.161 352.164 249.294C348.091 248.445 345.037 248.106 342.322 248.106C337.061 248.106 332.648 249.633 326.879 252.009C321.957 254.046 316.357 254.555 310.926 255.064C307.532 255.403 304.138 255.743 300.914 256.422C292.429 258.119 283.604 260.325 274.949 265.925C262.731 273.731 258.488 287.817 255.094 299.017C253.906 302.581 252.379 306.145 250.851 309.369C249.833 311.575 248.985 313.612 248.136 315.648C246.1 320.909 246.609 326.849 246.948 332.449C246.778 335.164 246.948 337.37 246.948 339.576ZM249.324 316.497C250.173 314.46 251.021 312.424 252.039 310.218C253.567 306.823 255.264 303.429 256.452 299.526C260.694 285.611 264.767 274.41 275.628 267.452C284.113 262.022 292.429 259.985 301.084 258.119C304.308 257.44 307.702 257.1 310.926 256.761C316.527 256.252 322.127 255.743 327.388 253.537C333.158 250.991 337.23 249.803 342.152 249.803C344.697 249.803 347.582 250.143 351.655 250.991C361.159 252.858 369.135 254.894 377.111 258.628C386.105 262.87 391.366 264.228 402.057 264.737C411.9 265.246 419.197 266.943 426.834 270.507C433.792 273.731 436.168 277.974 439.053 283.235C439.901 284.762 440.75 286.12 441.768 287.817C443.635 290.871 446.35 293.587 449.065 296.472C451.611 299.017 454.156 301.732 456.023 304.617C466.375 319.382 467.223 336.861 458.738 355.359C457.72 357.565 456.702 359.771 455.853 361.977C453.308 368.086 450.592 374.535 446.01 379.796C444.822 380.984 443.635 382.172 442.277 383.529C440.071 385.566 437.695 387.772 435.998 390.318C434.81 392.354 433.961 394.56 433.113 396.597C432.264 398.803 431.416 401.009 430.228 402.876C428.531 405.421 426.664 407.797 424.797 410.173C422.931 412.549 420.894 415.094 419.197 417.64C418.179 419.337 417.161 421.034 416.312 422.731C414.276 426.295 412.409 429.859 409.524 432.574C400.869 440.889 389.16 443.605 377.959 446.15C376.602 446.49 375.244 446.829 373.886 447.168C360.819 450.393 349.619 451.92 339.606 451.92C332.479 451.92 325.691 451.071 319.751 449.544C300.574 444.623 284.962 433.422 270.876 414.246C267.652 409.834 266.464 405.082 265.106 399.991C264.258 396.597 263.409 393.203 261.882 389.809C258.658 382.851 256.791 376.232 254.585 369.105L253.567 365.88C250.682 356.038 248.645 348.91 248.645 339.407C248.645 337.2 248.475 334.994 248.306 332.618C247.797 327.188 247.457 321.418 249.324 316.497Z" fill="#F6F7F7"/>
<path d="M271.216 342.122C271.216 349.759 272.743 355.529 275.119 363.166L275.798 365.711C277.495 371.311 279.022 376.572 281.568 382.003C282.756 384.548 283.434 387.094 283.944 389.639C284.962 393.543 285.98 397.616 288.695 401.179C299.896 416.283 312.284 425.277 327.557 429.18C332.479 430.368 337.74 431.047 343.34 431.047C351.146 431.047 359.971 429.859 370.323 427.314C371.341 427.144 372.359 426.805 373.377 426.635C382.202 424.598 391.536 422.392 398.493 415.604C401.039 413.228 402.566 410.343 404.094 407.458C404.772 406.101 405.451 404.913 406.3 403.555C407.488 401.519 409.015 399.652 410.542 397.785C412.07 395.918 413.597 394.052 414.955 392.015C415.973 390.318 416.652 388.621 417.331 386.924C418.009 385.227 418.518 383.7 419.367 382.342C420.385 380.475 422.252 378.948 423.949 377.421C424.967 376.403 425.985 375.554 427.004 374.536C430.737 370.293 432.774 365.202 434.81 360.281C435.489 358.584 436.168 356.887 437.016 355.19C443.974 340.425 443.125 326.17 434.81 314.291C433.113 311.915 431.246 309.879 429.21 307.842C427.004 305.636 425.137 303.43 423.779 301.394C423.1 300.206 422.422 299.018 421.743 297.83C419.367 293.587 417.331 290.023 411.561 287.308C405.451 284.423 399.512 283.066 391.705 282.726C383.729 282.387 379.656 281.369 372.868 278.144C366.419 275.09 360.14 273.562 352.673 272.035C349.449 271.356 347.243 271.186 345.037 271.186C340.964 271.186 337.57 272.374 332.988 274.241C329.254 275.938 324.842 276.278 320.769 276.617C318.224 276.787 315.508 277.126 312.963 277.635C306.344 278.993 299.387 280.69 292.768 285.102C283.265 291.211 279.871 302.072 277.325 310.897C276.477 313.782 275.289 316.328 274.101 318.873C273.252 320.57 272.573 322.097 271.895 323.794C270.198 327.867 270.707 332.449 271.046 337.031C271.046 338.728 271.216 340.425 271.216 342.122ZM273.422 324.304C274.101 322.776 274.78 321.079 275.458 319.552C276.646 317.006 278.004 314.291 278.852 311.236C282.077 300.545 285.301 291.89 293.617 286.46C300.065 282.217 306.684 280.69 313.302 279.332C315.848 278.823 318.393 278.653 320.939 278.314C325.182 277.975 329.764 277.465 333.667 275.768C338.079 273.902 341.134 272.883 345.037 272.883C347.073 272.883 349.279 273.223 352.334 273.732C359.631 275.259 365.91 276.787 372.02 279.672C378.978 282.896 383.22 283.914 391.366 284.423C398.833 284.763 404.603 286.12 410.542 288.836C415.973 291.381 417.67 294.605 420.046 298.678C420.725 299.866 421.403 301.054 422.082 302.242C423.61 304.618 425.646 306.824 427.852 309.03C429.719 311.067 431.755 313.103 433.283 315.309C443.295 329.734 439.901 344.498 435.319 354.511C434.471 356.208 433.792 357.905 433.113 359.602C431.076 364.354 429.04 369.275 425.476 373.348C424.628 374.366 423.61 375.215 422.591 376.233C420.894 377.93 419.028 379.627 417.67 381.494C416.652 383.021 416.143 384.718 415.464 386.415C414.785 388.112 414.106 389.809 413.258 391.337C412.07 393.373 410.542 395.24 409.015 397.106C407.488 398.973 405.96 400.84 404.603 403.046C403.754 404.404 403.075 405.761 402.227 406.949C400.7 409.834 399.172 412.38 396.966 414.586C390.178 421.035 381.184 423.071 372.529 425.107C371.511 425.277 370.492 425.617 369.474 425.786C359.292 428.162 350.637 429.35 342.831 429.35C337.23 429.35 332.139 428.671 327.388 427.483C312.623 423.58 300.574 414.925 289.544 400.161C286.998 396.767 286.15 393.034 285.131 389.13C284.453 386.585 283.774 383.87 282.586 381.154C280.21 375.893 278.683 370.633 276.986 365.032L276.307 362.487C274.101 354.85 272.573 349.42 272.573 341.953C272.573 340.256 272.404 338.389 272.234 336.692C272.234 332.449 271.895 328.037 273.422 324.304Z" fill="#F6F7F7"/>
<path d="M217.758 394.391C219.286 399.312 219.455 404.064 219.625 408.816C219.795 412.719 219.964 416.792 220.813 421.034C222.171 427.313 226.922 433.253 231.165 438.514C232.013 439.532 232.862 440.55 233.541 441.569C245.759 457.521 258.657 465.157 274.948 474.661L276.815 475.679C304.986 492.14 327.556 499.607 349.788 499.607C362.176 499.607 374.225 497.401 386.783 492.649C422.421 479.582 449.064 455.145 463.659 422.053C471.465 404.573 478.762 390.657 486.569 377.93C488.096 375.384 489.793 373.008 491.32 370.463C498.957 358.753 506.763 346.704 508.8 332.958C513.382 302.921 493.696 281.368 474.689 260.495C471.465 256.931 468.071 253.198 465.016 249.634C463.998 248.446 463.15 247.258 462.131 246.24C458.568 241.827 455.343 237.924 449.743 235.548C446.01 233.851 441.767 233.342 437.694 232.833C434.13 232.324 430.397 231.815 426.833 230.627C423.948 229.609 421.403 228.081 418.687 226.384C415.633 224.518 412.408 222.481 408.675 221.463C403.584 219.936 397.983 219.766 392.723 219.596C389.159 219.427 385.425 219.427 381.862 218.748C375.073 217.729 368.285 216.202 361.667 214.675C351.485 212.299 340.793 209.923 330.441 209.414C319.411 208.905 308.041 211.79 297.18 214.675C292.428 215.863 287.846 217.051 283.264 218.069C258.996 222.821 239.65 236.906 224.207 261.174C222.001 264.737 219.286 268.131 216.57 271.356C211.649 277.465 206.728 283.914 204.182 291.211C199.939 303.6 200.958 317.685 202.315 330.922C205.031 352.983 210.631 371.82 217.758 394.391ZM206.388 291.551C208.764 284.423 213.685 278.144 218.437 272.204C221.152 268.81 223.868 265.416 226.074 261.852C241.517 237.755 259.845 224.178 283.943 219.427C288.525 218.578 293.107 217.39 297.858 216.032C307.871 213.487 318.053 210.772 328.066 210.772C328.914 210.772 329.763 210.772 330.611 210.772C340.963 211.281 351.485 213.657 361.667 216.032C368.285 217.56 375.243 219.087 381.862 220.105C385.425 220.614 389.329 220.784 392.892 220.954C398.153 221.124 403.584 221.293 408.505 222.651C412.069 223.669 415.124 225.536 418.178 227.403C420.893 229.1 423.609 230.797 426.663 231.815C430.227 233.173 434.13 233.682 437.864 234.191C441.937 234.7 445.84 235.379 449.404 236.906C454.664 239.282 457.719 242.846 461.113 247.258C461.962 248.446 462.98 249.464 463.998 250.652C467.223 254.385 470.447 257.949 473.841 261.513C492.508 282.047 511.855 303.26 507.442 332.449C505.406 345.856 497.599 357.735 490.132 369.275C488.435 371.82 486.908 374.366 485.381 376.742C477.405 389.47 470.107 403.555 462.301 421.034C447.707 453.617 421.403 477.715 386.274 490.613C373.886 495.195 362.006 497.401 349.788 497.401C327.896 497.401 305.665 490.104 277.664 473.812L275.797 472.794C258.996 462.951 246.947 455.993 234.898 440.211C234.22 439.193 233.371 438.174 232.523 437.156C228.45 432.065 223.868 426.125 222.51 420.356C221.661 416.452 221.492 412.38 221.322 408.476C221.152 403.725 220.983 398.803 219.286 393.712C212.158 371.311 206.558 352.474 204.352 330.413C203.164 317.346 202.146 303.599 206.388 291.551Z" fill="#F6F7F7"/>
<path d="M355.219 352.984C355.388 353.493 355.388 353.832 355.388 354.511C355.388 355.699 355.388 357.057 356.407 358.075C357.255 358.923 358.273 359.432 359.461 359.432C361.837 359.432 363.874 357.735 364.722 356.038C365.74 354.341 366.08 352.644 365.571 351.287C365.062 349.929 363.874 348.741 362.177 347.893C361.158 347.384 358.783 346.535 356.746 346.535C354.879 346.535 354.031 347.384 353.691 348.232C353.182 349.25 353.861 350.438 354.54 351.626C354.879 352.135 355.219 352.644 355.219 352.984ZM356.746 348.232C358.443 348.232 360.819 349.25 361.498 349.59C362.516 349.929 363.704 350.778 364.043 351.966C364.383 352.984 364.043 354.172 363.365 355.36C362.516 356.717 360.819 357.905 359.461 357.905C358.783 357.905 358.104 357.566 357.595 357.057C356.916 356.378 356.916 355.529 356.916 354.511C356.916 354.002 356.916 353.323 356.746 352.814C356.576 352.135 356.237 351.456 355.898 350.778C355.558 350.269 355.049 349.25 355.219 348.911C355.388 348.741 355.558 348.232 356.746 348.232Z" fill="#F6F7F7"/>
<path d="M340.115 350.099C340.794 350.608 341.473 351.118 342.152 351.627C345.885 354.681 347.073 357.736 348.431 362.488C349.279 365.542 353.013 375.555 360.31 375.555C363.025 375.555 365.91 374.028 368.965 371.143C374.056 366.051 384.238 348.063 380.675 339.408C379.147 335.844 375.583 334.317 369.983 335.165C368.795 335.335 367.607 335.335 366.419 335.335C362.856 335.335 359.631 334.656 356.237 333.808C353.352 333.129 350.467 332.45 347.243 332.111C346.734 332.111 346.055 332.111 345.376 332.111C340.285 332.111 334.006 333.468 332.309 337.032C329.763 342.463 336.043 347.045 340.115 350.099ZM333.667 337.881C334.855 335.165 340.455 333.978 345.207 333.978C345.885 333.978 346.394 333.978 346.904 333.978C350.128 334.317 353.013 334.996 355.728 335.505C359.292 336.353 362.516 337.032 366.25 337.032C367.607 337.032 368.795 336.862 370.153 336.693C374.905 336.014 377.79 337.032 378.978 339.917C382.032 347.554 372.529 364.694 367.607 369.785C365.062 372.331 362.516 373.688 360.14 373.688C355.219 373.688 351.655 367.579 349.789 361.979C348.261 356.887 347.073 353.663 343 350.269C342.491 349.76 341.643 349.251 340.964 348.742C337.23 345.857 331.97 341.954 333.667 337.881Z" fill="#F6F7F7"/>
<path d="M235.409 389.13C236.766 393.373 236.936 397.615 237.106 401.519C237.275 404.913 237.275 408.476 238.124 412.04C239.312 417.471 243.554 422.732 247.118 427.314C247.797 428.162 248.476 429.18 249.155 430.029C259.846 443.944 271.046 450.563 285.301 458.878L286.998 459.897C311.605 474.321 331.291 480.77 350.637 480.77C361.329 480.77 372.02 478.734 382.881 474.831C413.937 463.46 437.016 442.078 449.914 413.398C456.702 398.294 462.981 386.076 469.939 375.045C471.297 372.839 472.654 370.633 474.181 368.596C480.8 358.414 487.588 347.892 489.455 335.843C493.358 309.709 476.218 290.872 459.757 272.714C456.872 269.659 453.987 266.435 451.271 263.21C450.423 262.192 449.574 261.174 448.726 260.325C445.502 256.422 442.786 253.028 437.865 250.992C434.641 249.634 430.907 249.125 427.343 248.616C424.289 248.107 420.895 247.767 418.01 246.579C415.464 245.731 413.258 244.373 410.882 242.846C408.167 241.149 405.282 239.452 402.057 238.433C397.645 237.076 392.724 236.906 388.142 236.906C384.917 236.736 381.693 236.736 378.638 236.227C372.868 235.379 366.929 234.021 361.159 232.664C352.165 230.627 343.001 228.591 333.837 228.082C324.164 227.572 314.321 230.118 304.817 232.664C300.575 233.682 296.672 234.7 292.768 235.548C271.555 239.791 254.755 252.01 241.348 273.223C239.481 276.277 237.106 279.332 234.73 282.217C230.487 287.647 226.075 293.078 223.869 299.527C220.135 310.218 220.984 322.606 222.172 334.146C224.378 353.153 229.299 369.614 235.409 389.13ZM225.735 299.696C227.772 293.587 232.184 288.157 236.257 282.896C238.633 280.011 241.009 276.956 242.876 273.902C256.282 252.858 272.234 241.149 293.277 237.076C297.181 236.227 301.254 235.209 305.496 234.191C314.151 231.985 323.145 229.609 331.8 229.609C332.649 229.609 333.328 229.609 334.006 229.609C343.001 230.118 352.165 232.154 360.989 234.191C366.759 235.548 372.699 236.906 378.638 237.755C381.693 238.264 385.087 238.264 388.311 238.433C392.893 238.603 397.645 238.773 401.888 239.961C404.942 240.809 407.658 242.506 410.203 244.203C412.579 245.561 414.955 247.088 417.67 248.107C420.895 249.294 424.119 249.804 427.343 250.143C430.907 250.652 434.301 251.161 437.356 252.519C441.938 254.555 444.483 257.78 447.538 261.513C448.387 262.531 449.235 263.55 450.084 264.568C452.799 267.792 455.853 271.017 458.569 274.071C474.86 291.89 491.661 310.388 487.927 335.843C486.23 347.553 479.442 357.905 472.994 367.917C471.636 370.123 470.109 372.33 468.751 374.536C461.793 385.566 455.514 397.785 448.726 413.058C435.998 441.399 413.258 462.442 382.711 473.643C371.85 477.546 361.498 479.582 350.977 479.582C331.97 479.582 312.624 473.303 288.186 459.048L286.489 458.03C271.895 449.545 261.373 443.435 250.852 429.689C250.173 428.841 249.494 427.992 248.815 426.974C245.251 422.562 241.179 417.471 240.16 412.38C239.312 408.985 239.312 405.422 239.142 402.028C238.972 397.785 238.803 393.542 237.445 389.13C231.336 369.614 226.414 353.323 224.548 334.146C223.02 322.097 222.172 310.048 225.735 299.696Z" fill="#F6F7F7"/>
<path d="M305.835 378.948C308.89 385.227 311.944 391.676 316.526 397.446C323.993 406.949 337.23 412.38 352.843 412.38C355.898 412.38 359.122 412.21 362.177 411.701C383.05 408.816 401.378 394.221 406.809 376.403C407.487 374.366 407.997 372.16 408.336 370.123C409.185 366.22 410.203 361.978 412.239 358.244C412.918 356.887 413.767 355.359 414.615 354.002C417.33 349.25 420.046 344.329 421.233 339.068C424.628 322.267 416.652 308.182 400.36 302.242C396.796 301.054 393.063 300.375 387.972 300.375C385.935 300.375 383.729 300.545 381.862 300.545C379.826 300.545 377.789 300.715 375.753 300.715C372.359 300.715 367.777 300.545 363.534 298.678C356.407 295.793 349.619 294.436 342.661 294.436C337.57 294.436 332.139 295.284 326.369 296.812C321.108 298.169 315.508 300.036 309.738 304.279C305.835 307.163 302.95 309.879 300.914 312.933C298.877 315.988 297.01 325.152 295.483 332.449C294.804 335.843 294.126 338.728 293.786 340.595C291.241 349.589 292.428 356.208 297.859 364.014C300.744 368.596 303.289 373.857 305.835 378.948ZM295.144 340.765C295.653 338.898 296.332 336.013 297.01 332.619C298.368 325.831 300.235 316.497 302.102 313.782C303.968 311.067 306.853 308.351 310.587 305.636C316.017 301.733 321.617 299.866 326.709 298.509C332.479 296.981 337.57 296.133 342.661 296.133C349.449 296.133 355.898 297.49 362.855 300.375C367.437 302.242 372.189 302.412 375.753 302.412C377.789 302.412 379.826 302.242 381.862 302.242C383.899 302.242 385.935 302.072 387.972 302.072C392.893 302.072 396.626 302.581 399.851 303.769C415.464 309.539 422.931 322.606 419.536 338.728C418.518 343.819 415.803 348.571 413.088 353.153C412.239 354.511 411.391 356.038 410.712 357.396C408.675 361.299 407.657 365.541 406.639 369.614C406.13 371.651 405.621 373.687 405.112 375.724C399.851 392.694 381.693 407.119 361.837 409.834C358.783 410.343 355.728 410.513 352.673 410.513C337.57 410.513 324.842 405.252 317.714 396.258C313.302 390.658 310.247 384.209 307.193 378.1C304.647 373.008 302.102 367.578 298.877 362.657C293.786 355.529 292.768 349.25 295.144 340.765Z" fill="#F6F7F7"/>
<path d="M324.503 364.014C326.879 366.899 329.254 369.784 330.782 373.517L331.121 374.366C333.327 379.457 335.024 383.36 339.606 387.433C344.019 391.167 349.958 393.203 357.086 393.203C366.759 393.203 377.28 389.47 383.899 383.7C393.911 375.045 394.76 363.335 395.608 351.117C395.778 348.741 395.948 346.195 396.118 343.65C397.136 334.146 394.93 327.188 389.499 322.606C385.766 319.382 381.014 319.043 376.941 319.043C375.583 319.043 374.056 319.043 372.699 319.212C371.341 319.212 369.983 319.382 368.626 319.382H368.117C364.722 319.382 361.328 318.873 358.104 318.364C354.71 317.855 351.146 317.346 347.582 317.346C346.225 317.346 344.867 317.346 343.51 317.515C330.103 319.043 316.527 327.697 316.357 343.989C316.357 350.098 317.884 355.359 321.278 359.941C322.466 361.468 323.484 362.826 324.503 364.014ZM343.679 319.212C344.867 319.043 346.225 319.043 347.582 319.043C351.146 319.043 354.371 319.552 357.934 320.061C361.159 320.57 364.553 321.079 368.286 321.079H368.795C370.153 321.079 371.511 321.079 373.038 320.909C374.396 320.909 375.753 320.74 377.28 320.74C381.014 320.74 385.257 321.079 388.651 323.964C393.402 328.037 395.439 334.655 394.59 343.48C394.421 346.025 394.251 348.571 394.081 350.947C393.233 362.826 392.554 374.196 383.05 382.512C376.602 388.112 366.589 391.676 357.425 391.676C350.807 391.676 345.037 389.809 340.964 386.415C336.721 382.681 335.024 378.948 332.988 374.027L332.648 373.178C330.951 369.275 328.576 366.39 326.2 363.335C325.181 362.147 324.163 360.79 323.145 359.432C319.921 355.02 318.393 350.268 318.563 344.498C318.393 328.716 331.121 320.57 343.679 319.212Z" fill="#F6F7F7"/>
<path d="M153.78 415.773C153.95 420.185 154.12 424.767 154.12 429.01C154.629 455.144 155.138 479.921 180.933 496.891C188.57 501.982 197.055 505.885 205.37 509.619C212.668 513.013 220.135 516.407 227.092 520.65C238.632 527.777 248.475 535.923 258.997 544.578C260.694 545.935 262.391 547.463 264.257 548.82C281.058 562.566 307.871 579.028 340.963 579.028C344.188 579.028 347.412 578.858 350.467 578.519C382.371 575.294 407.487 559.851 432.434 542.881C439.561 538.129 446.519 533.887 453.307 529.814C471.805 518.783 489.454 508.601 502.691 487.897C508.291 479.072 511.516 469.908 514.91 460.235C516.946 454.465 518.983 448.526 521.698 442.756C525.771 433.761 531.201 424.937 536.462 416.452C540.365 410.173 544.438 403.554 548.002 396.936C552.075 388.96 556.826 381.832 561.408 375.044C573.457 356.716 584.827 339.406 582.282 312.932C580.076 290.701 568.027 274.749 555.469 257.949C551.056 252.179 546.474 246.069 542.402 239.79C538.838 234.19 535.444 228.59 532.389 223.329C519.661 201.777 508.631 183.109 482.327 172.418C469.429 167.157 454.665 166.478 440.41 165.799C438.882 165.799 437.355 165.63 435.828 165.63C433.791 165.46 431.585 165.46 429.549 165.46C423.439 165.29 416.991 165.29 411.39 163.593C407.487 162.405 404.093 160.369 400.529 158.333C397.305 156.466 393.911 154.599 390.347 153.241C373.547 147.302 359.97 144.587 345.885 144.587C337.569 144.587 329.593 143.908 321.787 143.059C314.15 142.38 306.174 141.702 298.028 141.702C269.009 141.702 244.911 150.356 214.874 171.4C192.303 187.182 176.521 201.777 164.981 217.729C160.229 224.347 156.835 231.305 153.441 238.602C152.593 240.299 151.744 242.166 150.896 243.863C148.689 248.275 145.974 252.688 143.429 256.93C139.695 262.87 135.792 269.149 133.416 275.937C128.325 290.022 128.834 310.557 131.04 324.981C133.246 339.067 137.828 352.473 142.241 365.371C147.162 381.153 152.932 397.784 153.78 415.773ZM134.434 276.277C136.81 269.658 140.713 263.549 144.277 257.609C146.992 253.367 149.708 248.954 151.914 244.372C152.762 242.675 153.611 240.808 154.459 239.111C157.853 231.814 161.078 225.026 165.829 218.577C177.2 202.795 192.982 188.2 215.383 172.588C245.251 151.714 269.009 143.229 297.519 143.229C305.495 143.229 313.471 143.908 321.108 144.587C328.915 145.265 337.06 146.114 345.376 146.114C359.122 146.114 372.698 148.829 389.159 154.769C392.553 155.957 395.778 157.823 399.002 159.69C402.566 161.727 406.299 163.933 410.372 165.121C416.142 166.818 422.761 166.987 429.04 167.157C431.076 167.157 433.282 167.157 435.319 167.327C436.846 167.327 438.373 167.497 439.901 167.497C453.986 168.175 468.581 168.684 481.139 173.945C506.764 184.467 517.795 202.965 530.353 224.178C533.577 229.608 536.801 235.039 540.535 240.639C544.608 247.087 549.19 253.027 553.602 258.967C566.16 275.598 578.039 291.38 580.076 313.102C582.621 339.067 571.421 356.207 559.542 374.195C554.96 381.153 550.208 388.281 546.135 396.257C542.741 402.875 538.668 409.324 534.765 415.603C529.504 424.088 523.904 432.913 519.831 442.077C517.116 448.016 515.079 453.956 513.043 459.726C509.649 469.399 506.424 478.393 500.994 487.048C487.927 507.413 470.617 517.595 452.289 528.456C445.501 532.529 438.373 536.602 431.246 541.523C406.469 558.324 381.692 573.767 350.127 576.821C347.073 577.161 343.848 577.331 340.794 577.331C308.211 577.331 281.737 561.209 265.276 547.463C263.579 546.105 261.882 544.578 260.015 543.22C249.493 534.565 239.65 526.25 227.941 519.122C220.983 514.88 213.346 511.316 206.049 508.092C197.903 504.358 189.418 500.455 181.782 495.533C156.835 479.072 156.326 454.635 155.817 429.01C155.647 424.597 155.647 420.185 155.478 415.773C154.629 397.615 148.859 380.814 143.259 364.522C138.847 351.625 134.265 338.388 132.228 324.472C130.022 310.217 129.343 290.022 134.434 276.277Z" fill="#F6F7F7"/>
<path d="M57.7289 429.52C57.3895 434.441 55.6924 439.702 53.9954 444.624C51.959 450.563 49.9225 456.673 50.0922 462.782C50.2619 469.061 52.4681 474.661 54.6742 480.092C56.7107 485.013 58.7471 490.274 59.2562 496.044C59.5956 499.268 59.7653 502.492 59.935 505.547C60.2744 514.202 60.7835 522.518 65.0261 531.003C71.984 544.918 85.8997 552.385 99.3062 559.683C104.737 562.737 110.507 565.792 115.428 569.186C125.271 575.974 135.623 581.065 145.805 585.987C154.46 590.229 163.624 594.642 172.109 600.242C196.377 615.685 214.196 629.261 230.148 643.856C247.118 659.468 262.9 672.705 286.489 674.911C290.732 675.251 295.484 675.59 300.914 675.59C305.496 675.59 310.078 675.42 314.66 675.251C319.072 675.081 323.654 674.911 328.236 674.911C339.267 674.911 347.922 675.76 356.068 677.796C360.31 678.814 364.213 679.324 368.117 679.324C381.693 679.324 392.554 673.045 403.924 666.256C408.846 663.371 413.767 660.487 419.367 657.771C428.87 653.189 437.865 647.928 446.689 642.668C455.514 637.577 464.508 632.146 474.181 627.564C486.909 621.455 497.431 613.479 508.631 604.993C515.25 600.072 522.038 594.811 529.335 590.06C535.105 586.326 541.045 582.762 546.814 579.199C580.246 558.834 614.696 537.791 620.296 496.892C623.52 473.813 628.442 455.145 642.867 438.514C645.921 434.95 649.315 431.896 652.709 428.841C656.443 425.447 660.176 422.053 663.401 418.15C668.831 411.701 670.868 405.592 673.244 399.143C674.432 395.919 675.619 392.694 677.147 389.3C679.183 384.888 682.577 380.985 685.971 376.912C689.535 372.669 693.099 368.257 695.475 363.336C700.226 353.153 699.378 343.65 698.699 333.637C698.529 331.431 698.36 329.055 698.19 326.68C696.663 297.491 693.099 281.199 682.917 257.101C674.262 236.737 663.91 213.487 652.54 195.159C646.43 185.486 638.624 177.001 630.987 169.025C622.502 159.861 613.508 150.358 607.399 139.157C597.216 120.829 592.295 113.362 578.549 99.6162C562.427 83.3247 540.026 74.3304 515.419 74.3304C510.668 74.3304 504.898 75.1789 498.958 76.0274C492.509 76.876 485.721 77.8942 479.612 77.8942C476.048 77.8942 472.993 77.5548 470.278 76.876C465.696 75.688 456.532 67.8817 448.556 61.0935C441.429 54.9842 434.81 49.384 430.907 47.6869C419.367 42.7655 409.355 41.7473 399.003 40.5594C391.705 39.7109 384.238 38.8624 375.584 36.8259C366.589 34.6198 360.989 32.2439 355.389 29.8681C348.77 27.1528 342.491 24.4376 331.461 22.4011C327.897 21.7223 323.654 21.3829 318.563 21.3829C287.338 21.3829 237.445 34.9592 217.759 42.2564C185.346 54.1357 168.036 65.8452 141.562 87.2279C117.465 106.235 19.2062 212.299 21.2426 263.889C22.2608 290.702 27.6914 309.03 35.328 331.94C38.5524 341.444 39.4009 351.626 40.4191 361.299C41.607 373.348 42.795 385.906 48.2255 397.276C48.9043 398.464 49.4134 399.822 50.0922 401.01C54.5045 410.343 58.4077 418.489 57.7289 429.52ZM51.4498 400.331C50.9407 399.143 50.2619 397.785 49.7528 396.597C44.492 385.397 43.3041 373.009 42.1162 361.129C41.0979 351.287 40.0797 341.104 36.8553 331.431C29.2187 308.521 23.7882 290.363 22.77 263.889C20.7335 212.978 118.652 107.592 141.902 88.5855C168.206 67.2028 185.516 55.663 217.59 43.9535C237.275 36.6562 286.829 23.2496 317.715 23.2496C322.636 23.2496 326.709 23.589 330.273 24.2679C341.134 26.474 347.243 29.0195 353.862 31.7348C359.462 34.1107 365.232 36.4865 374.226 38.6927C382.881 40.8988 390.518 41.7473 397.815 42.4261C408.167 43.6141 418.01 44.6323 429.38 49.384C433.113 50.9113 439.732 56.5115 446.689 62.4512C455.175 69.7484 464.169 77.3851 469.09 78.573C471.806 79.2518 475.03 79.5912 478.933 79.5912C485.212 79.5912 492 78.573 498.449 77.7245C504.389 76.876 509.989 76.0274 514.91 76.0274C539.008 76.0274 560.9 84.852 576.682 100.804C590.259 114.55 595.18 121.847 605.192 140.006C611.471 151.546 620.466 161.049 629.121 170.213C636.588 178.189 644.394 186.674 650.503 196.178C661.873 214.336 672.225 237.585 680.88 257.95C691.062 281.878 694.626 298 695.984 327.019C696.154 329.395 696.323 331.771 696.493 333.977C697.172 343.82 698.02 352.984 693.438 362.826C691.232 367.578 687.668 371.821 684.274 375.894C680.88 379.967 677.486 384.039 675.28 388.621C673.583 392.015 672.395 395.41 671.377 398.634C669.171 404.913 666.965 410.853 661.873 417.132C658.649 421.035 654.916 424.429 651.352 427.653C647.958 430.708 644.394 433.932 641.339 437.496C626.745 454.466 621.654 473.473 618.429 496.723C612.999 536.773 578.719 557.646 545.796 577.841C540.026 581.405 534.087 584.968 528.317 588.702C521.02 593.454 514.062 598.714 507.443 603.636C496.413 611.951 485.891 619.927 473.333 626.037C463.66 630.788 454.496 636.049 445.671 641.31C437.016 646.401 428.022 651.662 418.519 656.244C412.918 658.959 407.997 661.844 403.076 664.729C391.366 671.687 381.184 677.627 368.117 677.627C364.383 677.627 360.48 677.117 356.577 676.099C348.261 674.063 339.606 673.045 328.406 673.045C323.824 673.045 319.242 673.214 314.66 673.384C310.248 673.554 305.496 673.723 301.084 673.723C295.823 673.723 291.241 673.554 286.829 673.045C263.749 670.838 248.136 657.771 231.505 642.328C215.553 627.564 197.565 614.157 173.297 598.545C164.642 592.945 155.478 588.532 146.823 584.29C136.811 579.368 126.459 574.447 116.786 567.659C111.695 564.095 105.925 561.04 100.494 557.986C87.2573 550.858 73.681 543.391 66.8929 529.984C62.82 521.839 62.3109 513.693 61.9715 505.208C61.8018 502.153 61.6321 498.929 61.2927 495.535C60.6138 489.425 58.5774 484.165 56.541 479.073C54.3348 473.473 52.2984 468.382 52.1287 462.442C51.959 456.673 53.9954 450.563 55.8621 444.793C57.5592 439.702 59.4259 434.441 59.5956 429.181C60.1047 418.15 55.8621 409.495 51.4498 400.331Z" fill="#F6F7F7"/>
<path d="M34.8186 450.563C32.7822 456.842 30.576 463.291 30.7457 469.909C30.9154 476.528 33.2913 482.467 35.4974 488.237C37.5339 493.498 39.74 499.098 40.4188 505.208C40.7582 508.771 40.928 512.165 41.0977 515.39C41.6068 524.723 41.9462 533.378 46.5282 542.373C53.9951 557.137 68.7593 565.113 83.0144 572.919C88.7844 576.144 94.8937 579.368 100.154 583.101C110.676 590.399 121.707 595.659 132.398 600.92C141.732 605.502 151.235 610.084 160.399 616.024C186.194 632.485 205.201 646.74 222.002 662.353C239.99 678.984 256.791 692.9 281.907 695.275C286.489 695.785 291.41 695.954 297.18 695.954C302.102 695.954 307.023 695.785 311.775 695.615C316.527 695.445 321.448 695.275 326.2 695.275C337.909 695.275 347.073 696.294 355.728 698.33C360.14 699.518 364.383 700.027 368.456 700.027C382.881 700.027 394.42 693.239 406.639 686.112C411.73 683.057 417.161 680.002 422.931 677.117C432.943 672.196 442.616 666.596 451.95 661.165C461.284 655.735 470.957 649.965 481.139 645.043C494.715 638.425 505.916 630.109 517.625 621.115C524.583 615.854 531.88 610.254 539.687 605.333C545.796 601.429 552.075 597.526 558.184 593.793C593.652 572.071 630.308 549.67 636.248 506.226C639.642 481.788 644.903 461.763 660.176 444.114C663.401 440.381 667.134 436.987 670.698 433.762C674.601 430.199 678.674 426.635 682.068 422.392C687.838 415.434 690.044 408.986 692.59 402.197C693.778 398.803 694.965 395.24 696.663 391.676C698.869 386.924 702.432 382.851 705.996 378.439C709.73 374.027 713.633 369.275 716.009 364.014C720.93 353.153 720.251 343.141 719.403 332.449C719.233 330.073 719.063 327.528 718.894 324.982C717.366 293.927 713.463 276.617 702.602 250.992C693.438 229.439 682.407 204.662 670.189 185.147C663.74 174.795 655.425 165.97 647.279 157.315C638.115 147.642 628.781 137.63 622.163 125.581C611.471 106.065 606.041 98.2584 591.616 83.4941C574.476 66.1844 550.717 56.681 524.583 56.5113C519.492 56.5113 513.383 57.3598 507.104 58.2083C500.146 59.2265 493.018 60.2448 486.569 60.2448C482.666 60.2448 479.442 59.9054 476.557 59.2265C471.636 57.8689 461.962 49.7231 453.308 42.4259C445.841 35.9772 438.713 29.8678 434.471 28.1708C422.082 22.91 411.561 21.8918 400.53 20.5341C392.893 19.6856 384.917 18.8371 375.583 16.4612C366.08 14.0854 359.971 11.5398 354.201 9.16399C347.243 6.27903 340.624 3.39407 328.915 1.18793C325.181 0.509112 320.599 0 315.339 0C282.077 0 229.299 14.4248 208.256 22.0615C173.806 34.7892 155.478 47.0079 127.307 69.9179C102.361 90.1126 -2.00705 202.796 0.0293962 257.44C1.04762 285.781 6.98724 305.297 14.9633 329.734C18.3574 339.916 19.3756 350.608 20.3938 360.959C21.5817 373.857 22.9394 387.094 28.7093 399.143C29.3881 400.5 29.8972 401.858 30.576 403.216C35.3277 413.228 39.4006 421.713 38.7218 433.593C38.5521 439.872 36.6854 445.302 34.8186 450.563ZM32.2731 403.385C31.5943 402.028 31.0851 400.84 30.4063 399.482C24.8061 387.603 23.6182 374.536 22.2606 361.808C21.2423 351.286 20.2241 340.595 16.6603 330.243C8.68428 305.976 2.91436 286.629 1.72643 258.459C-0.310011 204.323 103.549 92.3187 128.325 72.2937C156.326 49.5534 174.654 37.3348 208.765 24.7767C229.638 17.1401 282.246 2.71526 315.169 2.71526C320.26 2.71526 324.842 3.05467 328.406 3.73348C339.946 5.93963 346.564 8.82458 353.352 11.7095C359.292 14.2551 365.401 16.8007 375.074 19.1765C384.408 21.5524 392.384 22.4009 400.19 23.2494C411.221 24.4373 421.573 25.6252 433.622 30.7163C437.525 32.4134 444.653 38.353 451.95 44.632C461.114 52.4384 470.448 60.4145 475.708 61.7721C478.593 62.6206 481.988 62.96 486.06 62.96C492.679 62.96 499.976 61.9418 506.934 60.9236C513.213 60.0751 519.322 59.2265 524.413 59.2265C550.039 59.2265 573.288 68.7299 590.089 85.7003C604.513 100.295 609.774 108.101 620.466 127.447C627.084 139.666 636.587 149.679 645.751 159.521C653.728 168.007 662.043 177.001 668.492 187.013C680.71 206.36 691.571 230.967 700.735 252.519C711.596 277.974 715.33 295.114 716.857 325.831C717.027 328.376 717.197 330.752 717.366 333.298C718.215 343.65 718.894 353.493 714.142 364.014C711.766 369.105 708.033 373.518 704.299 377.93C700.735 382.172 697.002 386.585 694.626 391.506C692.929 395.07 691.571 398.634 690.383 402.197C688.008 408.986 685.801 415.265 680.201 421.883C676.807 425.956 672.904 429.52 669.001 433.083C665.437 436.308 661.704 439.702 658.479 443.435C642.866 461.424 637.436 481.619 634.042 506.395C628.272 548.991 591.955 571.222 556.827 592.605C550.717 596.338 544.269 600.241 538.329 604.145C530.523 609.236 523.225 614.666 516.268 620.097C504.558 628.921 493.358 637.407 479.951 643.855C469.599 648.777 459.926 654.547 450.592 659.977C441.259 665.408 431.755 671.008 421.743 675.929C415.803 678.814 410.542 681.869 405.281 684.924C392.723 692.221 382.032 698.5 368.116 698.5C364.044 698.5 359.971 697.991 355.728 696.973C346.903 694.766 337.739 693.748 325.86 693.748C320.939 693.748 316.017 693.918 311.266 694.088C306.514 694.257 301.593 694.427 296.671 694.427C291.071 694.427 286.15 694.257 281.568 693.748C257.13 691.372 240.499 677.626 222.68 661.165C205.71 645.552 186.703 631.128 160.908 614.666C151.575 608.727 142.071 603.975 132.738 599.563C122.046 594.302 111.185 589.041 100.833 581.913C95.4028 578.18 89.2935 574.956 83.5235 571.731C69.4382 564.095 55.0133 556.288 47.8858 542.033C43.4735 533.378 43.1341 524.723 42.625 515.729C42.4553 512.505 42.2856 508.941 41.9462 505.547C41.2674 499.098 39.0612 493.498 37.0248 488.067C34.6489 482.128 32.4428 476.697 32.2731 470.249C32.1034 463.97 34.3095 457.69 36.346 451.581C38.2127 446.151 40.0794 440.72 40.4188 435.12C41.2674 422.392 36.8551 413.058 32.2731 403.385Z" fill="#F6F7F7"/>
<path d="M135.283 422.222C135.453 427.144 135.622 432.235 135.792 436.986C136.471 466.175 136.98 493.667 165.66 512.674C174.145 518.274 183.648 522.687 192.812 526.929C200.958 530.663 209.274 534.396 216.91 539.148C229.808 546.954 240.838 556.118 252.378 565.791C254.245 567.319 256.281 569.016 258.148 570.543C276.816 585.816 306.683 604.144 343.509 604.144C347.073 604.144 350.637 603.975 354.2 603.635C389.838 600.071 417.67 582.762 445.501 563.925C453.307 558.494 461.283 553.912 468.92 549.5C489.624 537.281 509.14 525.741 523.904 502.831C530.183 492.988 533.747 482.806 537.48 471.945C539.686 465.496 542.062 458.878 544.947 452.429C549.529 442.417 555.639 432.574 561.408 423.071C565.821 415.943 570.403 408.646 574.136 401.349C578.718 392.524 583.979 384.548 589.07 376.911C602.477 356.547 615.205 337.201 612.32 307.672C609.944 282.895 596.537 265.077 582.452 246.409C577.53 239.96 572.439 233.172 567.857 226.045C563.784 219.766 560.221 213.656 556.657 207.717C542.402 183.789 530.183 162.915 500.994 151.036C486.739 145.096 470.278 144.417 454.326 143.739C452.628 143.739 450.931 143.569 449.234 143.569C446.859 143.399 444.483 143.399 442.107 143.399C435.149 143.229 428.021 143.229 421.912 141.193C417.67 139.835 413.766 137.629 409.694 135.253C406.13 133.217 402.396 131.011 398.493 129.653C379.826 123.035 364.552 119.98 349.109 119.98C339.945 119.98 330.951 119.132 322.126 118.453C313.472 117.604 304.647 116.925 295.653 116.925C263.409 116.925 236.596 126.429 202.995 149.848C177.878 167.327 160.229 183.789 147.501 201.438C142.071 208.905 138.507 216.541 134.604 224.687C133.756 226.554 132.737 228.59 131.889 230.457C129.513 235.378 126.458 240.3 123.573 245.052C119.5 251.67 115.088 258.628 112.373 266.095C106.603 281.877 107.282 304.618 109.658 320.739C112.033 336.352 117.125 351.286 122.046 365.711C127.816 383.53 134.265 402.027 135.283 422.222ZM113.561 266.604C116.276 259.307 120.519 252.349 124.592 245.73C127.476 240.979 130.531 236.057 133.077 231.136C134.095 229.099 134.943 227.233 135.792 225.196C139.525 217.22 143.259 209.584 148.52 202.286C161.247 184.807 178.727 168.515 203.673 151.036C236.935 127.786 263.409 118.283 295.313 118.283C304.308 118.283 313.132 119.132 321.617 119.81C330.272 120.659 339.436 121.507 348.77 121.507C364.043 121.507 379.147 124.392 397.645 131.011C401.548 132.368 405.112 134.405 408.675 136.441C412.748 138.817 416.821 141.193 421.233 142.551C427.682 144.587 434.979 144.587 441.937 144.757C444.313 144.757 446.689 144.757 448.895 144.927C450.592 144.927 452.289 145.096 454.156 145.096C469.938 145.775 486.23 146.454 500.145 152.224C528.825 163.933 540.874 184.467 554.96 208.226C558.524 214.166 562.087 220.445 566.16 226.554C570.742 233.681 575.833 240.47 580.755 246.918C594.67 265.416 607.907 283.065 610.283 307.333C613.168 336.352 600.61 355.359 587.373 375.384C582.282 383.19 577.021 391.166 572.439 399.991C568.536 407.288 564.124 414.585 559.711 421.543C553.772 431.047 547.663 440.89 543.081 451.072C540.026 457.69 537.82 464.309 535.444 470.757C531.71 481.449 528.147 491.631 522.037 501.134C507.612 523.705 488.266 535.245 467.732 547.294C460.095 551.876 452.119 556.458 444.313 561.888C416.651 580.725 388.99 597.865 353.861 601.259C350.467 601.599 346.903 601.768 343.339 601.768C307.023 601.768 277.494 583.78 259.166 568.507C257.3 566.979 255.263 565.282 253.397 563.755C241.687 554.082 230.656 544.918 217.589 536.942C209.783 532.19 201.467 528.287 193.321 524.553C184.157 520.311 174.824 516.068 166.339 510.468C138.507 491.97 137.998 464.987 137.319 436.138C137.15 431.216 137.15 426.295 136.81 421.374C135.792 401.009 129.343 382.342 123.234 364.353C118.312 350.098 113.221 335.334 110.846 319.721C108.47 304.618 107.961 282.047 113.561 266.604Z" fill="#F6F7F7"/>
<path d="M81.6571 470.587C81.3177 472.284 80.9782 473.981 80.6388 475.509C76.9054 494.685 74.3598 508.431 91.4999 525.232C105.925 539.317 125.271 547.633 145.635 555.778C174.315 567.149 196.377 584.289 219.965 602.447C225.905 607.029 232.184 611.95 238.463 616.532C257.64 630.787 274.61 636.897 294.465 641.648C301.084 643.176 308.042 645.721 315.339 648.267C328.745 653.019 342.661 657.94 355.559 657.94C373.038 657.94 392.045 650.473 413.597 635.2C431.077 622.811 448.217 611.781 469.26 599.562C487.588 588.871 506.425 577.84 523.904 564.773C528.486 561.379 533.238 557.985 538.329 554.591C554.621 543.39 571.421 531.681 581.773 515.05C593.313 496.552 598.744 475.339 604.005 454.635L604.344 453.108C609.944 431.046 623.52 415.094 637.097 401.178C639.133 399.142 641.17 397.106 643.206 395.069C657.631 380.814 674.092 364.522 674.262 343.14C674.431 327.867 669.68 310.217 665.437 294.774C664.08 289.683 662.722 284.932 661.704 280.35C659.498 271.525 655.255 265.925 650.503 259.815C648.297 256.93 646.091 254.045 644.055 250.651C641.339 246.239 639.473 241.657 637.776 237.075C635.739 231.814 633.533 226.384 630.139 221.293C627.084 216.88 623.351 212.977 619.787 209.074C616.732 206.019 613.678 202.625 611.132 199.231C607.908 194.989 605.362 190.407 602.817 185.994C600.95 182.6 598.913 179.036 596.538 175.473C591.616 168.175 587.543 160.03 583.64 152.054C579.228 143.059 574.646 133.726 568.536 125.75C553.942 106.403 531.881 104.197 512.195 102.161C509.649 101.991 506.764 101.821 503.37 101.821C499.637 101.821 495.903 101.991 491.83 102.161C487.758 102.33 483.515 102.5 479.272 102.5C470.278 102.5 459.078 101.991 451.441 97.4091C447.368 94.8635 444.823 91.2997 442.277 87.5663C440.071 84.1722 437.695 80.7781 433.962 78.0629C428.361 73.8203 422.252 73.3112 416.482 73.3112C415.125 73.3112 413.597 73.3112 412.24 73.3112C410.882 73.3112 409.355 73.3112 407.827 73.3112C405.791 73.3112 404.094 73.3112 402.566 73.1415C385.087 71.4444 367.268 65.6745 348.261 55.662C337.57 50.0618 328.236 47.3465 318.903 47.3465C310.587 47.3465 301.763 49.383 290.392 53.965C277.665 59.2258 265.446 60.0743 252.718 61.0925C246.1 61.6016 239.481 62.1107 232.184 63.1289C215.383 65.6745 198.922 76.3658 183.479 87.2269C161.248 102.84 139.526 122.695 118.992 146.114C113.901 151.884 108.131 157.654 102.7 163.424C92.5181 173.776 81.9965 184.637 74.3598 196.007C63.4988 212.129 55.1833 229.778 50.771 245.9C46.0193 263.379 45.6799 284.932 49.7528 304.957C52.1286 316.157 56.2015 326.339 60.2744 336.012C62.6503 341.782 65.1958 347.722 67.2323 353.831C78.263 385.566 89.6331 427.652 81.6571 470.587ZM69.099 353.322C67.0626 347.043 64.517 341.273 62.1412 335.503C57.8986 325.321 53.8257 315.818 51.6195 304.617C47.5466 284.762 47.8861 263.549 52.6378 246.239C57.05 230.287 65.1958 212.638 75.8871 196.686C83.5238 185.316 93.8757 174.624 104.058 164.272C109.658 158.502 115.428 152.732 120.519 146.963C140.884 123.713 162.606 104.028 184.667 88.4148C199.94 77.7235 216.232 67.0321 232.693 64.6563C239.821 63.6381 246.609 63.1289 253.058 62.6198C265.955 61.6016 278.343 60.7531 291.241 55.4923C302.441 50.9103 310.927 48.8738 319.072 48.8738C328.067 48.8738 337.231 51.4194 347.752 57.0196C366.929 67.2018 384.917 72.9718 402.736 74.6688C404.433 74.8385 406.13 74.8385 408.167 74.8385C409.694 74.8385 411.052 74.8385 412.579 74.8385C413.937 74.8385 415.464 74.8385 416.822 74.8385C423.101 74.8385 428.192 75.5173 433.283 79.2508C436.677 81.7963 438.883 85.1904 441.089 88.4148C443.635 92.318 446.35 96.2211 450.762 98.7667C458.738 103.518 470.278 104.197 479.442 104.197C483.685 104.197 487.927 104.028 492 103.858C496.073 103.688 499.807 103.518 503.37 103.518C506.764 103.518 509.649 103.688 512.025 103.858C531.202 105.725 553.093 107.931 567.009 126.768C572.949 134.744 577.531 143.908 581.943 152.902C585.846 160.878 589.919 169.024 595.01 176.491C597.216 179.885 599.253 183.449 601.289 186.843C603.835 191.255 606.38 196.007 609.774 200.249C612.49 203.813 615.544 207.038 618.599 210.262C622.163 213.995 625.896 217.899 628.781 222.311C632.175 227.232 634.212 232.663 636.248 237.754C638.115 242.336 639.812 247.088 642.697 251.67C644.733 255.064 647.109 257.949 649.315 260.834C653.897 266.773 658.14 272.373 660.176 280.689C661.364 285.271 662.552 290.023 663.91 295.114C668.152 310.557 672.904 328.036 672.734 342.97C672.565 363.674 656.443 379.626 642.188 393.711C640.151 395.748 637.945 397.784 636.078 399.821C622.332 413.906 608.756 430.028 602.986 452.599L602.647 454.126C597.386 474.49 591.956 495.703 580.585 514.031C570.403 530.323 553.772 541.863 537.65 553.063C532.899 556.457 527.808 559.851 523.226 563.415C505.916 576.482 486.909 587.513 468.751 598.035C447.538 610.423 430.398 621.454 412.918 633.842C391.705 648.946 373.038 656.243 355.898 656.413V657.261V656.413C343.34 656.413 329.594 651.491 316.187 646.909C308.72 644.194 301.763 641.818 295.144 640.121C275.628 635.369 258.658 629.43 239.821 615.344C233.542 610.593 227.263 605.841 221.323 601.259C197.734 583.101 175.503 565.791 146.654 554.421C126.459 546.445 107.282 538.129 93.1969 524.383C76.566 508.261 79.1115 495.534 82.6753 476.187C83.0147 474.49 83.3541 472.963 83.6935 471.266C91.4999 427.483 79.96 385.226 69.099 353.322Z" fill="#F6F7F7"/>
<path d="M107.621 460.744C107.282 462.271 107.112 463.799 106.773 465.326C103.379 482.636 101.003 495.194 116.616 510.467C129.683 523.195 147.162 530.832 165.49 538.129C191.285 548.481 211.48 563.924 232.693 580.385C238.123 584.628 243.724 588.87 249.494 593.283C266.803 606.18 282.246 611.78 300.065 616.023C306.005 617.38 312.284 619.756 319.072 622.132C331.291 626.375 343.849 630.957 355.558 630.957C371.341 630.957 388.65 624.169 407.997 610.253C423.779 599.052 439.222 589.04 458.399 577.839C474.86 568.166 492 558.154 507.952 546.275C512.025 543.22 516.437 540.165 521.019 536.941C535.783 526.759 550.887 516.067 560.221 501.134C570.573 484.333 575.664 464.987 580.415 446.489L580.755 445.131C585.846 425.106 598.065 410.682 610.283 398.123C611.98 396.257 613.847 394.39 615.883 392.523C628.951 379.626 643.715 364.862 644.054 345.346C644.224 331.6 639.812 315.478 636.078 301.392C634.89 296.81 633.702 292.568 632.684 288.325C630.817 280.349 626.744 275.258 622.502 269.658C620.465 267.112 618.429 264.397 616.562 261.342C614.186 257.439 612.489 253.197 610.962 249.124C609.095 244.372 607.229 239.451 604.004 234.699C601.289 230.626 597.895 227.062 594.501 223.668C591.786 220.783 589.07 217.898 586.694 214.674C583.809 210.771 581.434 206.698 579.227 202.625C577.53 199.57 575.664 196.176 573.458 193.122C568.876 186.503 565.312 179.036 561.748 171.909C557.675 163.763 553.602 155.278 548.172 147.98C534.935 130.331 514.91 128.295 497.261 126.598C495.055 126.428 492.339 126.258 489.285 126.258C486.06 126.258 482.496 126.428 478.933 126.428C475.199 126.598 471.466 126.598 467.563 126.598C459.417 126.598 449.404 126.089 442.446 121.846C438.713 119.64 436.507 116.416 434.131 112.852C432.095 109.797 429.888 106.573 426.664 104.197C421.573 100.294 415.973 99.7846 410.882 99.7846C409.524 99.7846 408.336 99.7846 406.978 99.7846C405.621 99.7846 404.433 99.7846 403.075 99.7846C401.208 99.7846 399.681 99.7846 398.323 99.6149C382.541 98.0875 366.419 92.8267 349.109 83.8325C339.436 78.7413 330.951 76.3655 322.466 76.3655C314.829 76.3655 306.853 78.2322 296.671 82.4748C285.131 87.2265 274.101 88.075 262.561 88.9236C256.621 89.4327 250.512 89.7721 244.063 90.7903C228.79 93.1661 214.025 102.839 199.94 112.682C179.745 126.767 160.229 144.756 141.562 166.139C136.98 171.399 131.719 176.66 126.798 181.751C117.634 191.255 107.961 200.928 101.173 211.28C91.4995 225.874 83.8629 241.996 79.9597 256.591C75.7171 272.543 75.3777 292.059 79.1112 310.217C81.1476 320.399 85.0508 329.563 88.7843 338.388C90.9904 343.649 93.1966 348.909 95.0633 354.51C104.567 383.699 114.919 421.712 107.621 460.744ZM96.2512 354.34C94.3845 348.74 92.1783 343.309 89.9722 338.048C86.069 328.884 82.5052 320.06 80.4688 310.047C76.7353 292.059 77.0747 272.882 81.3173 257.269C85.2205 242.845 92.6875 226.893 102.361 212.468C109.149 202.286 118.652 192.612 127.816 183.109C132.907 178.018 137.998 172.587 142.75 167.327C161.248 146.114 180.764 128.125 200.789 114.209C214.535 104.536 229.299 94.8632 244.063 92.657C250.512 91.6388 256.621 91.2994 262.391 90.7903C274.101 89.9418 285.131 89.0933 297.01 84.3416C307.023 80.2687 314.829 78.4019 322.296 78.4019C330.442 78.4019 338.588 80.7778 348.091 85.6992C365.571 94.8632 381.862 100.124 397.814 101.821C399.342 101.991 400.869 101.991 402.736 101.991C404.093 101.991 405.451 101.991 406.639 101.991C407.997 101.991 409.185 101.991 410.372 101.991C415.973 101.991 420.724 102.67 425.137 106.064C428.191 108.27 430.228 111.324 432.264 114.379C434.64 117.773 437.016 121.507 441.089 123.882C448.386 128.295 458.738 128.804 467.053 128.804C470.787 128.804 474.69 128.634 478.424 128.464C481.987 128.295 485.551 128.295 488.776 128.295C491.83 128.295 494.376 128.464 496.582 128.634C513.892 130.331 533.577 132.368 546.305 149.338C551.736 156.466 555.808 164.951 559.712 172.927C563.275 180.054 567.009 187.521 571.421 194.309C573.458 197.364 575.324 200.588 577.021 203.643C579.227 207.716 581.603 211.959 584.658 215.862C587.034 219.086 589.919 222.141 592.634 224.856C595.858 228.25 599.252 231.814 601.968 235.717C605.022 240.129 606.889 245.051 608.756 249.803C610.453 254.045 611.98 258.288 614.526 262.361C616.393 265.415 618.429 268.13 620.465 270.676C624.538 275.937 628.442 281.028 630.308 288.665C631.326 292.738 632.514 297.15 633.702 301.732C637.436 315.647 641.848 331.6 641.678 345.176C641.509 363.843 626.914 378.438 614.017 391.166C612.15 393.032 610.283 394.899 608.416 396.766C595.858 409.663 583.64 424.258 578.379 444.622L578.04 445.98C573.288 464.478 568.366 483.654 558.015 500.285C548.851 515.049 533.747 525.571 519.152 535.753C514.74 538.808 510.328 541.862 506.085 545.087C490.303 556.966 473.332 566.978 456.701 576.482C437.525 587.682 422.082 597.695 406.3 608.895C387.123 622.641 370.322 629.26 354.71 629.26V630.108V629.26C343.34 629.26 330.951 624.847 318.902 620.605C312.114 618.229 305.835 616.023 299.726 614.495C282.077 610.253 266.803 604.822 249.663 592.095C243.893 587.852 238.293 583.44 232.863 579.197C211.48 562.736 191.455 547.123 165.321 536.771C147.162 529.474 129.683 522.007 116.955 509.449C102.021 494.854 104.227 483.315 107.452 465.835C107.791 464.308 107.961 462.781 108.3 461.253C116.616 421.712 106.094 383.359 96.2512 354.34Z" fill="#F6F7F7"/>
</svg>
